<?xml version="1.0" standalone="no"?><!DOCTYPE svg PUBLIC "-//W3C//DTD SVG 1.1//EN" "http://www.w3.org/Graphics/SVG/1.1/DTD/svg11.dtd"><svg t="1688611169209" class="icon" viewBox="0 0 1024 1024" version="1.1" xmlns="http://www.w3.org/2000/svg" p-id="3240" xmlns:xlink="http://www.w3.org/1999/xlink" width="200" height="200"><path d="M297.9 659.2c-10.9 0-19.8-8.9-19.8-19.8V230.9c0-10.9 8.9-19.8 19.8-19.8s19.8 8.9 19.8 19.8v408.5c0 10.9-8.9 19.8-19.8 19.8z" fill="#1296db" p-id="3241"></path><path d="M486.2 831.5c-114.8 0-208.1-93.4-208.1-208.1s93.4-208.1 208.1-208.1 208.1 93.4 208.1 208.1-93.4 208.1-208.1 208.1z m0-376.6c-92.9 0-168.5 75.6-168.5 168.5s75.6 168.5 168.5 168.5 168.5-75.6 168.5-168.5-75.6-168.5-168.5-168.5zM741.2 447.6c-10.9 0-19.8-8.9-19.8-19.8 0-62.7-51-113.7-113.7-113.7-10.9 0-19.8-8.9-19.8-19.8s8.9-19.8 19.8-19.8c84.6 0 153.3 68.8 153.3 153.3 0 10.9-8.8 19.8-19.8 19.8z" fill="#1296db" p-id="3242"></path><path d="M830.9 427c-10.9 0-19.8-8.9-19.8-19.8 0-101.8-82.9-184.7-184.7-184.7-10.9 0-19.8-8.9-19.8-19.8s8.9-19.8 19.8-19.8c123.7 0 224.3 100.6 224.3 224.3 0.1 11-8.8 19.8-19.8 19.8z" fill="#1296db" p-id="3243"></path></svg>